# xmcd
#
# Track frame offsets:
#	150
#	21859
#	45491
#	66523
#	83840
#	100951
#	122485
#	143397
#	163441
#	180640
#	197905
#	216996
#
# Disc length: 3127 seconds
# Revision: 1
# Processed by: cddbd v1.5.2PL0 Copyright (c) Steve Scherf et al.
# Submitted via: dBpowerAMP V12.0
#
DISCID=ab0c350c
DTITLE=孫露 - 午夜忘寝 [dBP-T0-GBF-FLAC]
DYEAR=2007
DGENRE=Chinese Pop
TTITLE0=下辈子不做女人
TTITLE1=菊花台
TTITLE2=一天一万年
TTITLE3=为你替代谁(原创)
TTITLE4=谁动了我的琴弦
TTITLE5=秋天不回来
TTITLE6=一生痴心
TTITLE7=茶花女爱上毕加索
TTITLE8=你爱我像谁
TTITLE9=一笔勾销
TTITLE10=其实还爱你(原创)
TTITLE11=不想一个人(原创)
EXTD=
EXTT0=
EXTT1=
EXTT2=
EXTT3=
EXTT4=
EXTT5=
EXTT6=
EXTT7=
EXTT8=
EXTT9=
EXTT10=
EXTT11=
PLAYORDER=
